REM DIRINDEX 1\2\4,1\2\5,1\2\6,1\3\7,1\3\8
REM DIRNAME cjc128,folder01,folder02,folder03,folder04,folder05,folder06,folder07
TITLE ""
FILE "036_Proficiency Test01.mp3" MP3
  TRACK 01 AUDIO
    TITLE "0:"
    INDEX 01 00:00:00
  TRACK 02 AUDIO
    TITLE "6:cjc128_2190"
    INDEX 01 00:00:23
  TRACK 03 AUDIO
    TITLE "0:"
    INDEX 01 00:02:38
  TRACK 04 AUDIO
    TITLE "6:cjc128_2191"
    INDEX 01 00:02:71
  TRACK 05 AUDIO
    TITLE "0:"
    INDEX 01 00:04:70
  TRACK 06 AUDIO
    TITLE "4:cjc128_2192"
    INDEX 01 00:05:46
  TRACK 07 AUDIO
    TITLE "0:"
    INDEX 01 00:08:44
  TRACK 08 AUDIO
    TITLE "5:cjc128_2193"
    INDEX 01 00:11:29
  TRACK 09 AUDIO
    TITLE "0:"
    INDEX 01 00:13:61
  TRACK 10 AUDIO
    TITLE "6:cjc128_2194"
    INDEX 01 00:14:37
  TRACK 11 AUDIO
    TITLE "0:"
    INDEX 01 00:16:20
  TRACK 12 AUDIO
    TITLE "4:cjc128_2195"
    INDEX 01 00:16:71
  TRACK 13 AUDIO
    TITLE "0:"
    INDEX 01 00:20:06
  TRACK 14 AUDIO
    TITLE "5:cjc128_2196"
    INDEX 01 00:24:16
  TRACK 15 AUDIO
    TITLE "0:"
    INDEX 01 00:27:45
  TRACK 16 AUDIO
    TITLE "6:cjc128_2197"
    INDEX 01 00:28:27
  TRACK 17 AUDIO
    TITLE "0:"
    INDEX 01 00:30:20
  TRACK 18 AUDIO
    TITLE "4:cjc128_2198"
    INDEX 01 00:31:04
  TRACK 19 AUDIO
    TITLE "0:"
    INDEX 01 00:34:71
  TRACK 20 AUDIO
    TITLE "5:cjc128_2199"
    INDEX 01 00:39:64
  TRACK 21 AUDIO
    TITLE "0:"
    INDEX 01 00:43:68
  TRACK 22 AUDIO
    TITLE "6:cjc128_2200"
    INDEX 01 00:44:44
  TRACK 23 AUDIO
    TITLE "0:"
    INDEX 01 00:46:45
  TRACK 24 AUDIO
    TITLE "4:cjc128_2201"
    INDEX 01 00:47:25
  TRACK 25 AUDIO
    TITLE "0:"
    INDEX 01 00:51:58
  TRACK 26 AUDIO
    TITLE "5:cjc128_2202"
    INDEX 01 00:56:65
  TRACK 27 AUDIO
    TITLE "0:"
    INDEX 01 01:01:15
  TRACK 28 AUDIO
    TITLE "6:cjc128_2203"
    INDEX 01 01:02:06
  TRACK 29 AUDIO
    TITLE "0:"
    INDEX 01 01:04:27
  TRACK 30 AUDIO
    TITLE "4:cjc128_2204"
    INDEX 01 01:05:11
  TRACK 31 AUDIO
    TITLE "0:"
    INDEX 01 01:08:44
  TRACK 32 AUDIO
    TITLE "5:cjc128_2205"
    INDEX 01 01:12:19
  TRACK 33 AUDIO
    TITLE "0:"
    INDEX 01 01:15:35
  TRACK 34 AUDIO
    TITLE "6:cjc128_2206"
    INDEX 01 01:16:11
  TRACK 35 AUDIO
    TITLE "0:"
    INDEX 01 01:18:15
  TRACK 36 AUDIO
    TITLE "4:cjc128_2207"
    INDEX 01 01:18:66
  TRACK 37 AUDIO
    TITLE "0:"
    INDEX 01 01:21:61
  TRACK 38 AUDIO
    TITLE "5:cjc128_2208"
    INDEX 01 01:25:33
  TRACK 39 AUDIO
    TITLE "0:"
    INDEX 01 01:28:33
  TRACK 40 AUDIO
    TITLE "6:cjc128_2209"
    INDEX 01 01:29:09
  TRACK 41 AUDIO
    TITLE "0:"
    INDEX 01 01:31:18
  TRACK 42 AUDIO
    TITLE "4:cjc128_2210"
    INDEX 01 01:32:06
  TRACK 43 AUDIO
    TITLE "0:"
    INDEX 01 01:35:04
  TRACK 44 AUDIO
    TITLE "5:cjc128_2211"
    INDEX 01 01:39:23
  TRACK 45 AUDIO
    TITLE "0:"
    INDEX 01 01:42:45
  TRACK 46 AUDIO
    TITLE "6:cjc128_2212"
    INDEX 01 01:43:37
  TRACK 47 AUDIO
    TITLE "0:"
    INDEX 01 01:45:44
  TRACK 48 AUDIO
    TITLE "4:cjc128_2213"
    INDEX 01 01:46:43
  TRACK 49 AUDIO
    TITLE "0:"
    INDEX 01 01:50:19
  TRACK 50 AUDIO
    TITLE "5:cjc128_2214"
    INDEX 01 01:53:45
  TRACK 51 AUDIO
    TITLE "0:"
    INDEX 01 01:56:30
  TRACK 52 AUDIO
    TITLE "6:cjc128_2215"
    INDEX 01 01:57:09
  TRACK 53 AUDIO
    TITLE "0:"
    INDEX 01 01:59:12
  TRACK 54 AUDIO
    TITLE "4:cjc128_2216"
    INDEX 01 01:59:63
  TRACK 55 AUDIO
    TITLE "0:"
    INDEX 01 02:02:56
  TRACK 56 AUDIO
    TITLE "5:cjc128_2217"
    INDEX 01 02:06:55
  TRACK 57 AUDIO
    TITLE "0:"
    INDEX 01 02:09:71
  TRACK 58 AUDIO
    TITLE "6:cjc128_2218"
    INDEX 01 02:10:53
  TRACK 59 AUDIO
    TITLE "0:"
    INDEX 01 02:12:58
  TRACK 60 AUDIO
    TITLE "4:cjc128_2219"
    INDEX 01 02:13:44
  TRACK 61 AUDIO
    TITLE "0:"
    INDEX 01 02:16:73
  TRACK 62 AUDIO
    TITLE "5:cjc128_2220"
    INDEX 01 02:21:22
  TRACK 63 AUDIO
    TITLE "0:"
    INDEX 01 02:25:02
